<svg xmlns="http://www.w3.org/2000/svg" viewBox="0 0 495.92 380.9"><defs><style>.cls-1{fill:#f6921e;}.cls-2{fill:none;}</style></defs><title>pizza-icon</title><g id="blanco"><path class="cls-1" d="M249.27,187.86l-.12-2.45c-.18-4.15-.16-5.93-.12-8.86v-1.28l18.88-1.69a6,6,0,0,0,5.41-6c-.15-12.91-4.08-23.1-11.68-30.29-8.15-7.71-20.43-11.45-35.52-10.82-27.66,1.22-42.5,22.69-42.42,42.27a5.94,5.94,0,0,0,5.25,5.87l19.52,2.26c-.2,2-.36,3-.46,3.58l0,.1a15,15,0,0,0,0,4.95,42.22,42.22,0,0,1-.15,6.29l0,.36c-.42,6.3-.9,13.44,4,18.85,3.27,3.66,8.17,5.57,15,5.85.61,0,1.2,0,1.78,0,6.89,0,12-1.77,15.6-5.42C250.2,205.32,249.7,196,249.27,187.86Zm-12.07-18,0,6.6c0,3.14-.06,5,.13,9.52l.13,2.52c.31,5.74.65,12.24-1.77,14.69-1.4,1.42-4.23,2.06-8.44,1.87-3.3-.14-5.65-.82-6.62-1.91-1.54-1.72-1.22-6.23-.94-10.21a54.57,54.57,0,0,0,.12-8.42l0-.22a9.07,9.07,0,0,1-.06-1.73c.19-1.11.58-3.42,1.11-10.41a5.92,5.92,0,0,0-5.23-6.35L196,163.51c2.83-16.56,17.31-24.57,30.64-25.16,11.74-.54,21,2.08,26.84,7.59,4.14,3.91,6.69,9.4,7.59,16.34l-18.47,1.65A5.9,5.9,0,0,0,237.2,169.83Z"/><path class="cls-1" d="M349,204.35c18.45,0,33.1-14.23,33.37-32.38A33.17,33.17,0,0,0,350,138.48h-.83c-18.12,0-32.84,13.81-33.52,31.45a32.74,32.74,0,0,0,9.15,24.19A33.29,33.29,0,0,0,349,204.35Zm-21.51-34c.45-11.43,9.76-20,21.66-20h.57a21,21,0,0,1,20.79,21.45c-.17,11.6-9.64,20.69-21.56,20.69a21.46,21.46,0,0,1-15.6-6.59A21.06,21.06,0,0,1,327.49,170.38Z"/><path class="cls-1" d="M128.1,131.37l-2,0v0c-14,.52-25.18,11.35-25.71,25.09a26.14,26.14,0,0,0,7.3,19.31A26.59,26.59,0,0,0,127,184a26.3,26.3,0,0,0,1.12-52.58Zm13.66,26.55c-.12,8.07-6.49,14.16-14.82,14.16a14.75,14.75,0,0,1-10.72-4.52,14.42,14.42,0,0,1-4-10.64c.31-7.81,6.71-13.7,14.9-13.7h.4A14.42,14.42,0,0,1,141.76,157.92Z"/><path class="cls-1" d="M282.24,294.39a26.47,26.47,0,0,0-25.51-26.72l-2.05,0v0c-14,.52-25.18,11.35-25.71,25.09a26.15,26.15,0,0,0,7.31,19.31,26.5,26.5,0,0,0,19.32,8.17A26.23,26.23,0,0,0,282.24,294.39Zm-11.86-.17c-.12,8.07-6.49,14.16-14.81,14.16a14.76,14.76,0,0,1-10.73-4.53,14.39,14.39,0,0,1-4-10.63c.31-7.81,6.71-13.7,14.91-13.7h.39A14.41,14.41,0,0,1,270.38,294.22Z"/><path class="cls-1" d="M295.75,122a6.82,6.82,0,0,0,2.37.49,3.27,3.27,0,0,0,2.4-.94,23.52,23.52,0,0,1,2.26-1.7c4-2.83,10.79-7.58,9.62-12.82l0-.21-.12-.17c-4.94-6.67-21.39-28.39-26.16-27.7a1.87,1.87,0,0,0-1.4,1L271,90.65a2.43,2.43,0,0,0-1.08,2.46C270.37,99.77,287.53,118.92,295.75,122Z"/><path class="cls-1" d="M312.35,235.07l-.12-.17c-4.94-6.67-21.39-28.34-26.16-27.7a1.85,1.85,0,0,0-1.4,1L271,218.94a2.42,2.42,0,0,0-1.08,2.46c.48,6.66,17.64,25.8,25.86,28.85a7,7,0,0,0,2.37.48,3.23,3.23,0,0,0,2.4-.94,23.87,23.87,0,0,1,2.26-1.69c4-2.84,10.79-7.58,9.62-12.83Z"/><path class="cls-1" d="M202.92,240.74l-.13-.17c-5.13-6.93-17.46-23-21.31-22.44a1.67,1.67,0,0,0-1.25.86l-11,8.65a2.17,2.17,0,0,0-.95,2.16c.39,5.42,14.34,21,21,23.47a5.82,5.82,0,0,0,2,.4,2.82,2.82,0,0,0,2.09-.82,19.71,19.71,0,0,1,1.79-1.34c3.3-2.32,8.83-6.2,7.85-10.56Z"/><path class="cls-1" d="M151.79,112l.19.09c6.87,3.32,22.08,10.33,27.66,10.33a2.88,2.88,0,0,0,1.65-.38,1.65,1.65,0,0,0,.7-1.34l5.74-12.8a2.15,2.15,0,0,0-.16-2.35c-2.87-4.61-22.45-11.91-29.52-11-2.33.3-3.13,1.39-3.4,2.25a17.4,17.4,0,0,1-1,2c-1.84,3.58-4.92,9.59-2,13Z"/><path class="cls-1" d="M396.89,147a1.56,1.56,0,0,0,.31,0,1.64,1.64,0,0,0,1.14-.45l13.19-4.77a2.16,2.16,0,0,0,1.58-1.75c1.32-5.28-7.06-24.43-12.63-28.87-1.84-1.46-3.18-1.28-4-.87a18.89,18.89,0,0,1-2.12.72c-3.86,1.17-10.32,3.13-10.76,7.57l0,.21.06.21C386.37,127.15,393.08,146.26,396.89,147Z"/><path class="cls-2" d="M7.54,114.84a1.59,1.59,0,0,1-.13.13l13.53,14Z"/><polygon class="cls-2" points="272.88 369.9 264.88 380.9 273.69 369.49 272.88 369.9"/><path class="cls-2" d="M371.52,82.14A315.53,315.53,0,0,0,265.4,62.7,325.8,325.8,0,0,0,158.78,79.5a310.68,310.68,0,0,0-95.15,50.89C59,134,54.18,138,48.79,142.82L262.13,367.39,450.35,123.5A326.85,326.85,0,0,0,371.52,82.14Z"/><path class="cls-2" d="M465,122.79,473,112l-8.23,10.64Z"/><path class="cls-2" d="M155.35,69.28A336.46,336.46,0,0,1,265.5,52.08,324.37,324.37,0,0,1,375.12,72.32a336.69,336.69,0,0,1,81,43.75L481.14,83.6A363.92,363.92,0,0,0,15.27,107.54l27.1,28.52c5.51-5.1,10.5-9.44,15.22-13.27A315.5,315.5,0,0,1,155.35,69.28Z"/><path class="cls-1" d="M273.69,369.49,487.79,92.37l8.13-10.83c-1.07-.85-2.14-1.7-3.21-2.53L491,77.73a374.77,374.77,0,0,0-486.24,25l-.11.06a3.06,3.06,0,0,0-.8.53,3.36,3.36,0,0,0-.54.72l-.07.11c-1.11,1.06-2.19,2.14-3.28,3.21L7.41,115a1.59,1.59,0,0,0,.13-.13L20.94,129l243.94,252ZM15.27,107.54A363.92,363.92,0,0,1,481.14,83.6l-25.06,32.47a336.69,336.69,0,0,0-81-43.75A324.37,324.37,0,0,0,265.5,52.08a336.46,336.46,0,0,0-110.15,17.2,315.5,315.5,0,0,0-97.76,53.51c-4.72,3.83-9.71,8.17-15.22,13.27ZM262.13,367.39,48.79,142.82C54.18,138,59,134,63.63,130.39A310.68,310.68,0,0,1,158.78,79.5,325.8,325.8,0,0,1,265.4,62.7,315.53,315.53,0,0,1,371.52,82.14a326.85,326.85,0,0,1,78.83,41.36Z"/><polygon class="cls-1" points="264.88 380.9 273.72 369.48 273.69 369.49 264.88 380.9"/></g></svg>