<svg id="Group_35" data-name="Group 35" xmlns="http://www.w3.org/2000/svg" width="296.236" height="150.214" viewBox="0 0 296.236 150.214">
  <path id="Path_155" data-name="Path 155" d="M322.56,150.658l-.045-.962c-.075-1.64-.065-2.34-.051-3.5l0-.5,7.445-.665a2.354,2.354,0,0,0,2.132-2.358c-.056-5.09-1.607-9.109-4.607-11.945-3.213-3.04-8.057-4.516-14.008-4.267-10.909.48-16.763,8.948-16.731,16.672a2.345,2.345,0,0,0,2.072,2.315l7.7.893c-.081.779-.145,1.167-.185,1.412l-.006.038a5.93,5.93,0,0,0-.009,1.953,16.278,16.278,0,0,1-.059,2.48l-.01.14c-.166,2.486-.355,5.3,1.556,7.438,1.291,1.441,3.223,2.2,5.905,2.307q.359.015.7.015c2.717,0,4.729-.7,6.152-2.138C322.925,157.548,322.731,153.888,322.56,150.658Zm-4.76-7.107-.016,2.6c-.015,1.24-.024,1.989.052,3.754l.051,1c.121,2.262.259,4.826-.7,5.79-.55.563-1.668.813-3.328.74a3.955,3.955,0,0,1-2.611-.753c-.607-.678-.482-2.458-.372-4.03a21.539,21.539,0,0,0,.05-3.321l-.008-.087a3.744,3.744,0,0,1-.026-.682,40.93,40.93,0,0,0,.44-4.107,2.333,2.333,0,0,0-2.065-2.5l-7.715-.9c1.119-6.532,6.829-9.692,12.085-9.924,4.631-.215,8.291.821,10.589,2.993a10.434,10.434,0,0,1,2.993,6.445l-7.287.65A2.327,2.327,0,0,0,317.8,143.551Z" transform="translate(-179.679 -76.567)" fill="#f6921e"/>
  <path id="Path_156" data-name="Path 156" d="M222.451,308.766h.032a13.57,13.57,0,1,0-9.917-4.194A13.614,13.614,0,0,0,222.451,308.766Zm-8.959-13.922a8.772,8.772,0,0,1,9.052-8.382l.238,0a8.812,8.812,0,1,1-.321,17.622,8.973,8.973,0,0,1-6.519-2.755A8.793,8.793,0,0,1,213.492,294.845Z" transform="translate(-126.451 -170.646)" fill="#f6921e"/>
  <path id="Path_157" data-name="Path 157" d="M104.833,233.451a7.547,7.547,0,0,1,.681.564c.988.871,2.529,2.228,3.927,2.228a1.9,1.9,0,0,0,.845-.191l.075-.037.054-.064c2.184-2.606,7.2-8.82,6.643-10.242a.664.664,0,0,0-.446-.4l-4.335-3.433a.849.849,0,0,0-.915-.168c-2.043.651-6.73,7.435-7.063,10.223C104.191,232.853,104.53,233.266,104.833,233.451Z" transform="translate(-63.151 -134.231)" fill="#f6921e"/>
  <path id="Path_158" data-name="Path 158" d="M575.735,274.087h0c-.1,0-.207,0-.31,0a12.315,12.315,0,1,0,.311,0Zm7.324,12.346a7.553,7.553,0,0,1-7.712,7.393,7.68,7.68,0,0,1-5.58-2.357,7.5,7.5,0,0,1,5.653-12.706l.208,0A7.513,7.513,0,0,1,583.058,286.433Z" transform="translate(-340.943 -165.983)" fill="#f6921e"/>
  <path id="Path_159" data-name="Path 159" d="M475.8,282.112c-3.284-.744-6.992.15-10.719,2.588a12.733,12.733,0,0,0-4.438,17.324,2.323,2.323,0,0,0,2.96.934l4.488-2c.061.146.1.248.131.328a4.893,4.893,0,0,0,.792,1.359,10.808,10.808,0,0,1,.788,1.4l.069.136c.823,1.636,1.848,3.672,4.084,4.381a5.035,5.035,0,0,0,1.5.228,7.4,7.4,0,0,0,3.505-1.015c2.117-1.138,3.354-2.527,3.783-4.244.665-2.661-.878-4.982-2.243-7.035l-.383-.575c-.575-.878-.826-1.306-1.177-1.91l3.873-2.79a2.352,2.352,0,0,0,.634-3.117C481.444,284.82,478.871,282.8,475.8,282.112Zm-1.963,12.434.921,1.578c.463.81.738,1.283,1.447,2.362l.414.629c.738,1.109,1.748,2.628,1.585,3.28-.067.264-.486.733-1.462,1.257s-1.328.459-1.381.444c-.351-.111-.973-1.348-1.311-2.022a16.468,16.468,0,0,0-1.233-2.158h0c-.03-.047-.073-.108-.131-.195l-.11-.161c-.122-.318-.379-.971-1.245-2.714a2.328,2.328,0,0,0-2.1-1.3,2.262,2.262,0,0,0-.951.2l-4.434,1.976c-1.169-4.114,1.273-7.46,3.792-9.108,2.643-1.728,5.108-2.4,7.13-1.942a6.54,6.54,0,0,1,3.4,2.123l-3.684,2.656A2.319,2.319,0,0,0,473.839,294.546Z" transform="translate(-277.912 -170.691)" fill="#f6921e"/>
  <path id="Path_160" data-name="Path 160" d="M141.33,255.054l-.1.084a4.688,4.688,0,0,0-1,1.108,9.417,9.417,0,0,1-.969,1.05l-.114.112c-1.223,1.21-2.744,2.715-2.728,4.951a5.981,5.981,0,0,0,2.158,4.289,6.615,6.615,0,0,0,4.579,2.172c.116,0,.236,0,.351-.011,2.6-.179,4.224-2.226,5.657-4.032l.388-.489c.545-.678.845-1.022,1.216-1.435l3.406,2.5a2.328,2.328,0,0,0,3.156-.36,11.339,11.339,0,0,0,3.128-8.524c-.288-3.143-2.146-6.18-5.373-8.783a11.878,11.878,0,0,0-16.671,1.048,2.345,2.345,0,0,0,.019,3.1Zm4.911,1.823a2.339,2.339,0,0,0,.109-3.242l-2.835-3.151a7.253,7.253,0,0,1,8.638.849c2.22,1.788,3.482,3.712,3.65,5.563a5.707,5.707,0,0,1-.771,3.28l-3.2-2.351a2.359,2.359,0,0,0-3.137.335l-1.176,1.312c-.53.588-.88.977-1.611,1.883l-.411.517c-.617.78-1.766,2.231-2.311,2.268l-.073.005a3.809,3.809,0,0,1-1.295-.872c-.667-.639-.719-.947-.72-.947.028-.3.982-1.237,1.343-1.592a17.247,17.247,0,0,0,1.776-2C144.467,258.537,144.969,258.12,146.241,256.877Z" transform="translate(-82.616 -148.232)" fill="#f6921e"/>
  <path id="Path_161" data-name="Path 161" d="M590.629,203.682l-.806-.007v.008a10.457,10.457,0,1,0,.806,0Zm5.384,10.471a5.649,5.649,0,0,1-5.842,5.585,5.822,5.822,0,0,1-4.232-1.785,5.668,5.668,0,0,1,4.295-9.6l.156,0A5.682,5.682,0,0,1,596.013,214.153Z" transform="translate(-351.047 -123.345)" fill="#f6921e"/>
  <path id="Path_162" data-name="Path 162" d="M441.781,164.453a12.99,12.99,0,0,0,.392-25.977h0c-.11,0-.22,0-.329,0a12.991,12.991,0,1,0-.062,25.981Zm-8.482-13.4a8.273,8.273,0,0,1,8.54-7.9l.228,0a8.311,8.311,0,1,1-.306,16.618,8.465,8.465,0,0,1-6.151-2.6A8.292,8.292,0,0,1,433.3,151.055Z" transform="translate(-259.565 -83.858)" fill="#f6921e"/>
  <path id="Path_163" data-name="Path 163" d="M224.282,131.361l-.806-.007v.007a10.457,10.457,0,1,0,.805,0Zm5.385,10.472a5.648,5.648,0,0,1-5.842,5.585,5.824,5.824,0,0,1-4.232-1.784,5.668,5.668,0,0,1,4.295-9.6l.157,0A5.682,5.682,0,0,1,229.667,141.833Z" transform="translate(-129.189 -79.547)" fill="#f6921e"/>
  <path id="Path_164" data-name="Path 164" d="M362.968,278.2a10.444,10.444,0,0,0-10.064-10.54l-.806-.007v.008a10.374,10.374,0,1,0,10.869,10.54Zm-4.679-.069a5.648,5.648,0,0,1-5.842,5.584,5.823,5.823,0,0,1-4.232-1.784,5.668,5.668,0,0,1,4.3-9.6l.156,0A5.683,5.683,0,0,1,358.289,278.13Z" transform="translate(-207.082 -162.088)" fill="#f6921e"/>
  <path id="Path_165" data-name="Path 165" d="M159.808,329.539l-.05-.067c-2.023-2.733-6.9-9.075-8.4-8.853a.664.664,0,0,0-.493.34l-4.351,3.413a.847.847,0,0,0-.377.85c.155,2.139,5.656,8.281,8.289,9.257a2.243,2.243,0,0,0,.774.157,1.119,1.119,0,0,0,.826-.32,7.439,7.439,0,0,1,.708-.53c1.3-.915,3.479-2.445,3.1-4.165Z" transform="translate(-88.495 -194.162)" fill="#f6921e"/>
  <path id="Path_166" data-name="Path 166" d="M79.525,316.339a9.842,9.842,0,0,0,.441-19.678l-.8-.007v.008a9.841,9.841,0,0,0,.363,19.677Zm5.292-9.745a5.126,5.126,0,0,1-5.305,5.065,5.289,5.289,0,0,1-3.844-1.62,5.141,5.141,0,0,1,3.9-8.706h.143A5.156,5.156,0,0,1,84.817,306.594Z" transform="translate(-42.118 -179.652)" fill="#f6921e"/>
  <path id="Path_167" data-name="Path 167" d="M393.083,95.883a2.715,2.715,0,0,0,.932.191,1.281,1.281,0,0,0,.949-.372,9.009,9.009,0,0,1,.889-.667c1.592-1.119,4.257-2.992,3.8-5.059l-.018-.082-.049-.067c-1.946-2.63-8.437-11.2-10.317-10.923a.721.721,0,0,0-.55.39l-5.406,4.24a.959.959,0,0,0-.426.968C383.072,87.131,389.841,94.682,393.083,95.883Z" transform="translate(-231.868 -47.78)" fill="#f6921e"/>
  <path id="Path_168" data-name="Path 168" d="M399.63,218.181l-.049-.067c-1.946-2.629-8.437-11.177-10.317-10.924a.722.722,0,0,0-.55.391l-5.406,4.24a.96.96,0,0,0-.426.969c.191,2.628,6.96,10.179,10.2,11.38a2.712,2.712,0,0,0,.932.191,1.281,1.281,0,0,0,.949-.372,9.07,9.07,0,0,1,.889-.667c1.592-1.119,4.257-2.991,3.8-5.059Z" transform="translate(-231.868 -125.47)" fill="#f6921e"/>
  <path id="Path_169" data-name="Path 169" d="M294.917,227.039l-.05-.067c-2.023-2.733-6.888-9.076-8.4-8.852a.663.663,0,0,0-.492.34l-4.351,3.413a.847.847,0,0,0-.377.85c.155,2.139,5.655,8.281,8.289,9.257a2.244,2.244,0,0,0,.773.157,1.119,1.119,0,0,0,.826-.32,7.437,7.437,0,0,1,.708-.53c1.3-.915,3.479-2.445,3.1-4.165Z" transform="translate(-170.317 -132.088)" fill="#f6921e"/>
  <path id="Path_170" data-name="Path 170" d="M149.434,195.762l.052.066c2.056,2.622,6.939,8.624,8.551,8.624a.573.573,0,0,0,.1-.007.664.664,0,0,0,.483-.354l4.255-3.531a.848.848,0,0,0,.353-.86c-.214-2.134-5.882-8.122-8.542-9.024a1.4,1.4,0,0,0-1.594.207,7.62,7.62,0,0,1-.693.549c-1.275.95-3.41,2.541-2.98,4.249Z" transform="translate(-90.45 -115.389)" fill="#f6921e"/>
  <path id="Path_171" data-name="Path 171" d="M263.993,101.348l.075.036c2.71,1.307,8.706,4.074,10.908,4.074a1.133,1.133,0,0,0,.651-.15.662.662,0,0,0,.277-.53l2.263-5.045a.848.848,0,0,0-.062-.928c-1.132-1.821-8.856-4.7-11.644-4.336-.918.12-1.235.549-1.34.889a7.357,7.357,0,0,1-.38.8c-.726,1.415-1.941,3.783-.8,5.126Z" transform="translate(-159.558 -57.191)" fill="#f6921e"/>
  <path id="Path_172" data-name="Path 172" d="M501.84,124.554a.7.7,0,0,0,.121.011.669.669,0,0,0,.453-.18l5.2-1.882a.849.849,0,0,0,.624-.69c.521-2.08-2.783-9.634-4.98-11.384a1.4,1.4,0,0,0-1.57-.345,7.485,7.485,0,0,1-.838.283c-1.522.462-4.069,1.235-4.243,2.988l-.008.083.026.08C497.691,116.746,500.337,124.284,501.84,124.554Z" transform="translate(-300.737 -66.597)" fill="#f6921e"/>
  <path id="Path_173" data-name="Path 173" d="M522.74,226.933c-.919-.132-1.338.2-1.53.5a7.406,7.406,0,0,1-.581.667c-1.08,1.167-2.889,3.121-2.153,4.722l.035.076.063.055c2.43,2.14,8.066,6.928,9.838,6.928a.688.688,0,0,0,.237-.037.662.662,0,0,0,.41-.436l3.537-4.25a.847.847,0,0,0,.19-.91C532.187,232.185,525.52,227.334,522.74,226.933Z" transform="translate(-313.883 -137.411)" fill="#f6921e"/>
  <path id="Path_174" data-name="Path 174" d="M659.466,308.18a7.243,7.243,0,0,1-.881-.081c-1.579-.193-4.221-.516-5.089,1.017l-.041.073-.008.083c-.33,3.384-.96,11.348.307,12.2a.663.663,0,0,0,.594.077l5.516.383a.768.768,0,0,0,.142.013.885.885,0,0,0,.707-.392c1.317-1.692,1.35-9.937.05-12.426C660.334,308.31,659.817,308.163,659.466,308.18Z" transform="translate(-395.451 -186.482)" fill="#f6921e"/>
  <path id="Path_175" data-name="Path 175" d="M560.246,169.49a1.1,1.1,0,0,0,.421-.091c1.981-.819,6.087-7.97,6.186-10.777.033-.925-.34-1.309-.657-1.467a7.377,7.377,0,0,1-.726-.506c-1.277-.948-3.415-2.536-4.926-1.632l-.072.043-.048.068c-1.959,2.779-6.444,9.39-5.766,10.759a.662.662,0,0,0,.478.36l4.606,3.06A.77.77,0,0,0,560.246,169.49Z" transform="translate(-335.856 -93.715)" fill="#f6921e"/>
  <path id="Path_176" data-name="Path 176" d="M280.63,81.979A149.9,149.9,0,0,0,238.9,31.161l-.031-.04a1.306,1.306,0,0,0-.248-.267,1.359,1.359,0,0,0-.333-.179l-.045-.019A147.82,147.82,0,0,0,46.46,40.5l-.044.024a1.363,1.363,0,0,0-.314.212,1.266,1.266,0,0,0-.213.282c-.009.015-.017.03-.027.044A147.713,147.713,0,0,0,0,148.117v2.1H296.236v-2.1A146.285,146.285,0,0,0,280.63,81.979ZM69.664,51.426a122.588,122.588,0,0,1,37.529-20.07,128.591,128.591,0,0,1,42.051-6.628A124.391,124.391,0,0,1,191.1,32.4a128.813,128.813,0,0,1,31.091,16.311L147.952,144.9,63.809,56.328C65.936,54.444,67.854,52.839,69.664,51.426ZM224.447,45.78a132.763,132.763,0,0,0-31.931-17.257,128.038,128.038,0,0,0-43.235-7.984,132.789,132.789,0,0,0-43.442,6.785A124.424,124.424,0,0,0,67.284,48.431c-1.864,1.507-3.831,3.222-6,5.233L47.626,39.449C74.321,14.8,111.906,4.193,148.119,4.193a142.511,142.511,0,0,1,86.214,28.778ZM38.643,81.621,34.03,90.05l-.555,1.255c-.5,1.18-1.038,2.372-1.556,3.524-.951,2.119-1.934,4.31-2.776,6.538-.374,1.13-.757,2.257-1.14,3.383-.775,2.28-1.578,4.637-2.286,7l-2.582,10.571.761.207,3.113-10.385c.753-2.114,1.6-4.237,2.416-6.289.5-1.246,1.009-2.533,1.49-3.793.9-2.129,1.944-4.241,2.955-6.283.56-1.131,1.139-2.3,1.685-3.457l.575-1.184,4.841-8.1A125.375,125.375,0,0,1,60.7,59.146l82.53,86.875H4.208A142.441,142.441,0,0,1,16.246,90.5a143.876,143.876,0,0,1,31.3-45.2L58.237,56.55A125.323,125.323,0,0,0,38.643,81.621ZM225.566,51.2c.892.675,1.813,1.373,2.7,2.086a125.945,125.945,0,0,1,28.455,31.865l4.071,7.008a19.084,19.084,0,0,1,1.239,2.345c.529,1.169,1.085,2.351,1.624,3.492.973,2.062,1.979,4.194,2.844,6.318.431,1.209.874,2.415,1.318,3.623.788,2.146,1.6,4.364,2.325,6.545l2.74,10.509.768-.181-2.266-10.668c-.636-2.272-1.36-4.561-2.06-6.775-.385-1.216-.77-2.433-1.15-3.675-.815-2.219-1.766-4.426-2.685-6.56-.5-1.158-1.015-2.356-1.5-3.532a19.98,19.98,0,0,0-1.213-2.5l-3.883-7.244A126.133,126.133,0,0,0,230.54,50.486c-.9-.745-1.839-1.472-2.745-2.176h0l9.849-12.763a143.409,143.409,0,0,1,54.385,110.475H152.384Z" fill="#f6921e"/>
</svg>
